:SAMPLES-PER-SECOND 30
:FULLY-SPECIFIED
:DEGREES
355
root  4.40513 38.294 2.98968 -20.8975 -85.9514 18.1299
RightUpLeg  4.46924 -15.1121 -24.7016
RightLeg  -2.1652 5.92126 -1.38001
RightFoot  6.33247 -4.35913 27.8111
RightToes  -1.28057e-009 0 -3.6325e-017
Spine  7.92646 -0.586377 -0.406188
Spine1  1.04776 -0.463764 -0.629714
HEad  11.2143 -4.16533 -0.219338
LeftShoulder1  1.83528 -4.16908 -17.2667
LeftArm  18.1711 20.9597 -47.3362
LeftForeArm  4.86831 -21.0164 -5.75172
LeftHand  -1.6717 -3.23368 22.519
RightShoulder  1.38112 1.78187 19.771
RightArm  3.74823 -19.014 50.5505
RightForeArm  13.873 15.2635 9.69387
RightHand  -1.25472 1.06594 -22.4849
LeftUpLeg  3.21767 15.3905 21.2847
LeftLeg  2.11767 -15.776 0.992268
LeftFoot  -1.89676 2.0776 -24.6677
LeftToes  -7.27922e-012 9.28972e-011 -9.04533e-012
356
root  4.48267 38.2875 2.98302 -22.0849 -86.0238 19.1934
RightUpLeg  4.43454 -15.1349 -24.7666
RightLeg  -2.16196 6.10989 -1.40128
RightFoot  6.26967 -4.37432 27.9982
RightToes  -1.28057e-009 0 -3.6325e-017
Spine  7.8577 -0.643077 -0.23331
Spine1  1.56054 -0.463495 -0.888394
HEad  11.1255 -4.37954 -0.0769576
LeftShoulder1  1.80284 -4.13974 -16.9057
LeftArm  16.4447 20.8633 -47.7289
LeftForeArm  3.97696 -20.8748 -5.86793
LeftHand  -1.62411 -3.44417 21.3973
RightShoulder  1.36868 1.73116 19.7882
RightArm  5.55039 -18.4079 51.4219
RightForeArm  12.3685 15.9588 9.32993
RightHand  -1.24691 0.999891 -22.5713
LeftUpLeg  3.266 15.3845 21.2535
LeftLeg  2.11418 -15.6746 0.984735
LeftFoot  -1.82957 2.09063 -24.6524
LeftToes  -7.27922e-012 9.28972e-011 -9.04533e-012
357
root  4.55201 38.2809 2.96569 -22.6982 -86.031 19.6733
RightUpLeg  4.46621 -15.1744 -24.8352
RightLeg  -2.14789 6.29472 -1.37989
RightFoot  6.19185 -4.37966 28.1493
RightToes  -1.28057e-009 0 -3.6325e-017
Spine  7.80638 -0.686929 -0.279286
Spine1  2.01665 -0.52539 -0.770593
HEad  10.8804 -4.69418 -0.0374851
LeftShoulder1  1.78653 -4.08066 -16.8715
LeftArm  15.6945 20.7349 -47.8747
LeftForeArm  3.18294 -21.14 -5.71931
LeftHand  -1.57697 -3.60122 20.4475
RightShoulder  1.35552 1.72102 19.5716
RightArm  7.46725 -17.7948 52.3588
RightForeArm  11.1829 16.7349 8.86314
RightHand  -1.18464 0.78109 -22.2042
LeftUpLeg  3.30557 15.4076 21.2714
LeftLeg  2.10218 -15.7018 0.964063
LeftFoot  -1.75705 2.11104 -24.7084
LeftToes  -7.27922e-012 9.28972e-011 -9.04533e-012
358
root  4.61764 38.2774 2.94132 -23.4861 -86.0297 20.4264
RightUpLeg  4.40686 -15.3065 -24.9491
RightLeg  -2.1037 6.49054 -1.25418
RightFoot  6.05305 -4.38137 28.3731
RightToes  -1.28057e-009 0 -3.6325e-017
Spine  7.76073 -0.685087 -0.366073
Spine1  2.23753 -0.541513 -0.648202
HEad  10.5678 -5.16686 -0.0125776
LeftShoulder1  1.77888 -4.02176 -16.961
LeftArm  15.4731 20.5863 -47.9076
LeftForeArm  3.10259 -21.5318 -5.47965
LeftHand  -1.55387 -3.6787 19.9921
RightShoulder  1.36057 1.75469 19.4948
RightArm  9.31909 -17.2856 53.0508
RightForeArm  10.5124 17.5146 8.32873
RightHand  -1.09009 0.499278 -21.4209
LeftUpLeg  3.26291 15.3809 21.2271
LeftLeg  2.04078 -15.6422 0.987987
LeftFoot  -1.62055 2.14734 -24.7879
LeftToes  -7.27922e-012 9.28972e-011 -9.04533e-012
359
root  4.67936 38.278 2.91801 -23.6612 -86.0556 20.6636
RightUpLeg  4.22075 -15.4639 -25.0043
RightLeg  -2.00493 6.6036 -1.071
RightFoot  5.96848 -4.38953 28.5552
RightToes  -1.28057e-009 0 -3.6325e-017
Spine  7.5722 -0.632781 -0.239321
Spine1  2.48761 -0.450354 -0.760474
HEad  10.1733 -5.86639 -0.0776737
LeftShoulder1  1.78904 -4.03968 -17.0462
LeftArm  15.1457 20.2953 -48.0038
LeftForeArm  3.58536 -21.8278 -5.28966
LeftHand  -1.54905 -3.69834 19.8908
RightShoulder  1.36728 1.75519 19.6305
RightArm  10.8431 -16.7768 53.4414
RightForeArm  10.0006 18.1682 7.84827
RightHand  -1.00043 0.249794 -20.5406
LeftUpLeg  3.14808 15.3226 21.1756
LeftLeg  1.92252 -15.5077 1.06913
LeftFoot  -1.45668 2.18947 -24.8644
LeftToes  -7.27922e-012 9.28972e-011 -9.04533e-012
360
root  4.73422 38.2793 2.89765 -23.1983 -86.0272 20.213
RightUpLeg  4.0791 -15.5799 -25.0233
RightLeg  -1.83238 6.65 -0.922846
RightFoot  5.94141 -4.39034 28.6028
RightToes  -1.28057e-009 0 -3.6325e-017
Spine  7.28345 -0.558629 -0.129943
Spine1  2.97024 -0.365243 -0.721676
HEad  9.68795 -6.83234 -0.383345
LeftShoulder1  1.8307 -4.17831 -17.1707
LeftArm  14.494 19.8819 -48.2448
LeftForeArm  3.90965 -21.9819 -5.19187
LeftHand  -1.51951 -3.63134 19.6615
RightShoulder  1.34952 1.70219 19.5481
RightArm  11.6612 -16.1658 53.8694
RightForeArm  9.59438 18.5273 7.57905
RightHand  -0.920803 0.0246257 -19.6971
LeftUpLeg  3.07582 15.2762 21.1605
LeftLeg  1.78138 -15.4807 1.15126
LeftFoot  -1.31367 2.22734 -24.9409
LeftToes  -7.27922e-012 9.28972e-011 -9.04533e-012
